HIERARCHY
ROOT Hips
{
	OFFSET -0.179506 -22.333345 2.821913
	CHANNELS 6 Xposition Yposition Zposition Zrotation Yrotation Xrotation 
	JOINT LeftUpLeg
	{
		OFFSET 6.951974 -9.140623 -0.681533
		CHANNELS 3 Zrotation Yrotation Xrotation
		JOINT LeftLeg
		{
			OFFSET 3.427654 -37.519855 -0.449580
			CHANNELS 3 Zrotation Yrotation Xrotation
			JOINT LeftFoot
			{
				OFFSET -1.359570 -39.796059 -4.369333
				CHANNELS 3 Zrotation Yrotation Xrotation
				JOINT LeftToe
				{
					OFFSET 2.635814 -5.579078 11.928840
					CHANNELS 3 Zrotation Yrotation Xrotation
					End Site
					{
						OFFSET 0.000000 0.000000 0.000000
					}
				}
			}
		}
	}
	JOINT RightUpLeg
	{
		OFFSET -6.767048 -9.052170 -0.431982
		CHANNELS 3 Zrotation Yrotation Xrotation
		JOINT RightLeg
		{
			OFFSET -3.829005 -38.256897 -0.885003
			CHANNELS 3 Zrotation Yrotation Xrotation
			JOINT RightFoot
			{
				OFFSET 1.577377 -39.841461 -4.231180
				CHANNELS 3 Zrotation Yrotation Xrotation
				JOINT RightToe
				{
					OFFSET -2.537174 -4.814398 12.334795
					CHANNELS 3 Zrotation Yrotation Xrotation
					End Site
					{
						OFFSET 0.000000 0.000000 0.000000
					}
				}
			}
		}
	}
	JOINT Spine
	{
		OFFSET -0.253288 10.896323 -2.669631
		CHANNELS 3 Zrotation Yrotation Xrotation
		JOINT Spine1
		{
			OFFSET 0.548704 13.518043 0.109247
			CHANNELS 3 Zrotation Yrotation Xrotation
			JOINT Spine2
			{
				OFFSET 0.145701 5.292222 2.542457
				CHANNELS 3 Zrotation Yrotation Xrotation
				JOINT Neck
				{
					OFFSET -0.277840 21.387037 -4.285703
					CHANNELS 3 Zrotation Yrotation Xrotation
					JOINT Head
					{
						OFFSET 0.515184 6.496960 5.134897
						CHANNELS 3 Zrotation Yrotation Xrotation
						End Site
						{
							OFFSET 0.000000 0.000000 0.000000
						}
					}
				}
				JOINT LeftShoulder
				{
					OFFSET 7.884473 12.174932 -3.408961
					CHANNELS 3 Zrotation Yrotation Xrotation
					JOINT LeftArm
					{
						OFFSET 9.097692 3.046888 -0.886815
						CHANNELS 3 Zrotation Yrotation Xrotation
						JOINT LeftForeArm
						{
							OFFSET 25.961220 -1.277207 -2.745643
							CHANNELS 3 Zrotation Yrotation Xrotation
							JOINT LeftHand
							{
								OFFSET 24.923361 0.898606 -0.117091
								CHANNELS 3 Zrotation Yrotation Xrotation
								End Site
								{
									OFFSET 0.000000 0.000000 0.000000
								}
							}
						}
					}
				}
				JOINT RightShoulder
				{
					OFFSET -8.175920 11.883285 -3.861528
					CHANNELS 3 Zrotation Yrotation Xrotation
					JOINT RightArm
					{
						OFFSET -9.601238 3.255117 -0.914307
						CHANNELS 3 Zrotation Yrotation Xrotation
						JOINT RightForeArm
						{
							OFFSET -25.374195 -1.332924 -2.140099
							CHANNELS 3 Zrotation Yrotation Xrotation
							JOINT RightHand
							{
								OFFSET -25.529810 0.777228 -0.555919
								CHANNELS 3 Zrotation Yrotation Xrotation
								End Site
								{
									OFFSET 0.000000 0.000000 0.000000
								}
							}
						}
					}
				}
			}
		}
	}
}
MOTION
Frames: 12
Frame Time: 0.033333
-0.058297 -30.617586 64.838661 -129.896776 -1.512204 87.741049 17.811330 1.483186 -2.103148 -17.710752 0.820561 86.679412 -2.963333 7.461997 -32.409039 nan nan nan -14.072048 -5.711611 -59.198358 -4.461502 -18.256065 92.180205 -4.450983 -13.119768 -34.512142 nan nan nan 1.480315 -7.918575 43.294478 4.743005 7.137965 -1.640773 1.921566 3.444484 6.033889 9.919695 -16.200983 5.674753 7.250285 -22.415658 -16.640737 -13.654800 11.272187 4.602160 -58.916105 2.595989 9.248648 9.769662 -22.113849 4.960988 -6.236214 -15.604077 -8.405080 18.854573 11.203133 -0.184811 30.560811 11.994172 -6.950903 -29.055554 48.441996 -21.341537 2.997913 12.249629 -5.120715 
-0.024094 -30.667372 64.169518 -129.847428 -1.193719 87.420018 18.259293 1.419083 -1.645625 -17.775734 0.712753 87.152012 -2.878493 7.539359 -33.233013 nan nan nan -14.013396 -5.616193 -59.706586 -4.692137 -18.280727 93.391564 -4.320554 -13.245903 -34.775097 nan nan nan 1.558298 -8.093877 43.374810 4.864323 7.318037 -1.333527 1.894473 3.176649 6.051442 9.610759 -16.157480 5.907758 7.417865 -22.252743 -16.950399 -13.751599 11.744777 4.364257 -58.656638 3.263604 9.315559 9.449999 -22.048282 5.629584 -6.874274 -15.462342 -7.970681 18.924477 10.912347 -0.944429 30.282361 12.847052 -6.130207 -28.068863 47.806827 -19.594859 3.207935 12.104325 -5.307776 
-0.012681 -30.670366 63.503227 -129.824984 -0.738635 87.047227 18.866056 1.420708 -1.102617 -17.898501 0.491465 87.689306 -2.924727 7.536432 -34.091934 nan nan nan -13.872582 -5.703709 -60.008531 -4.872915 -18.490285 94.577897 -4.210658 -13.201795 -35.119881 nan nan nan 1.638025 -8.250768 43.772560 4.916204 7.608788 -1.548550 1.906846 3.232095 6.196691 9.776215 -15.812017 6.174564 7.444487 -22.598807 -17.195133 -13.563575 12.045991 4.377701 -58.624983 3.763812 9.127990 9.258621 -21.881876 6.056094 -7.590153 -15.547854 -7.909757 18.720782 11.106860 -0.603801 30.228117 12.716065 -6.350627 -27.684269 47.674632 -19.067812 3.222679 12.181997 -5.852706 
-0.022356 -30.679665 62.865170 -129.745963 -0.375151 86.684324 19.323867 1.365517 -0.603827 -18.059010 0.279911 88.299737 -2.911256 7.590009 -35.093225 nan nan nan -13.818260 -5.882627 -60.258008 -5.058791 -18.616216 95.718428 -4.125210 -13.143790 -35.462722 nan nan nan 1.602974 -8.348911 44.110554 5.074286 7.824864 -1.625674 1.916544 3.411218 6.286921 9.966502 -15.824042 6.289067 7.420559 -22.811103 -17.382430 -13.461075 12.330067 4.424075 -58.566285 4.037778 9.059611 9.230680 -21.530771 6.281695 -8.073730 -15.560600 -8.251344 18.615437 11.159214 -0.530722 30.149096 12.476849 -6.236771 -27.427497 47.502190 -18.630882 3.114202 12.179348 -6.721408 
-0.049106 -30.737076 62.235203 -129.576388 -0.194436 86.343233 19.446185 1.105123 -0.189791 -18.066613 0.197608 88.998723 -2.723894 7.851620 -36.193377 nan nan nan -13.946547 -6.045380 -60.588594 -5.194447 -18.595675 96.833600 -4.027319 -13.221937 -35.751468 nan nan nan 1.547194 -8.390743 44.271242 5.263298 7.923185 -1.485811 1.935116 3.529849 6.383783 10.030715 -16.106312 6.227154 7.413804 -22.718238 -17.491505 -13.460591 12.564415 4.458796 -58.495176 4.205354 9.067860 9.261782 -21.103198 6.388806 -8.240983 -15.307308 -8.427024 18.445211 11.024674 -0.712568 30.058915 12.480233 -6.014101 -26.971187 47.201195 -18.114880 3.209772 12.115710 -7.245670 
-0.065543 -30.795870 61.606461 -129.482380 -0.025550 85.999347 19.533385 0.868809 0.219598 -18.126417 0.147034 89.734806 -2.610677 8.186482 -37.186631 nan nan nan -14.065383 -6.252013 -60.930996 -5.139743 -18.599554 97.921646 -3.940185 -13.219738 -36.000569 nan nan nan 1.532598 -8.422911 44.455194 5.358715 8.085818 -1.460355 1.929131 3.571449 6.588689 10.127699 -16.247995 6.168451 7.412664 -22.667894 -17.557870 -13.369963 12.809629 4.521082 -58.487134 4.382480 8.932191 9.327217 -20.735726 6.409794 -8.032494 -14.995495 -8.671962 18.239733 10.951926 -0.837969 29.967135 12.515163 -5.962886 -26.303040 46.944779 -17.472253 3.288409 12.093590 -7.511425 
-0.077841 -30.842735 61.001003 -129.484078 0.172959 85.593477 19.721087 0.724235 0.707882 -18.409209 0.105425 90.466642 -2.583121 8.470236 -38.022997 nan nan nan -14.171645 -6.507072 -61.180528 -5.019503 -18.677537 98.993462 -3.906090 -13.080324 -36.168295 nan nan nan 1.584392 -8.413127 44.797357 5.314253 8.430528 -1.601274 1.920221 3.621732 6.807781 10.416473 -16.359757 6.062038 7.400877 -22.802261 -17.701834 -13.196154 12.821018 4.793523 -58.514012 4.511739 8.620542 9.406119 -20.504861 6.514498 -7.896693 -14.916977 -8.670038 18.031141 10.969735 -0.801772 29.918053 12.201703 -6.251860 -25.728340 46.844837 -16.887372 3.411301 12.073975 -7.563960 
-0.026545 -30.876230 60.391949 -129.508119 0.553696 85.330324 20.266495 0.642748 0.946622 -18.774407 0.103031 91.285424 -2.537479 8.567366 -38.751742 nan nan nan -14.024801 -6.930804 -61.576549 -4.909688 -18.911211 99.986950 -3.899653 -12.906421 -36.391278 nan nan nan 1.873031 -8.344983 45.002963 5.207640 8.849719 -1.786130 1.908290 3.629764 6.992864 10.787452 -16.449257 5.909350 7.382373 -23.066299 -17.711607 -12.969663 12.718335 5.147693 -58.468626 4.620986 8.169462 9.288742 -20.367835 6.807995 -8.078119 -15.088605 -8.127327 18.094196 11.025258 -0.781069 29.623404 11.755278 -6.981797 -25.094272 46.814277 -16.052266 4.125843 12.048048 -6.560198 
-0.047591 -30.945786 59.789890 -129.511357 0.697307 84.939541 20.409330 0.447332 1.405069 -19.140416 0.122239 92.024941 -2.446409 8.859165 -39.449246 nan nan nan -14.297578 -7.112249 -61.806274 -4.878690 -19.128181 100.960168 -3.917119 -12.990394 -36.730300 nan nan nan 1.843371 -8.290092 45.301813 5.185628 9.236978 -1.872540 1.924858 3.576107 7.123069 10.899593 -16.718879 5.971964 7.436193 -23.114950 -17.797799 -12.884861 12.857942 5.296252 -58.284749 4.853605 8.206636 9.007664 -20.239771 7.312913 -7.728265 -15.009506 -7.916163 17.994253 10.937953 -0.951367 29.548322 11.617256 -6.896486 -24.386935 46.664333 -15.724551 3.704931 11.995973 -7.469147 
-0.055097 -30.986267 59.191135 -129.575292 0.973250 84.502673 20.768133 0.309251 1.992873 -19.716598 0.034723 92.724550 -2.568951 8.972782 -40.330906 nan nan nan -14.356594 -7.339989 -61.983331 -4.835839 -19.342837 101.957327 -3.874322 -12.932670 -37.050580 nan nan nan 1.808681 -8.220025 45.630834 5.244739 9.600391 -1.961068 1.974161 3.473999 7.368133 10.957556 -16.775642 5.974527 7.430003 -23.229928 -17.932609 -12.803658 13.252054 5.329099 -58.164371 5.032681 8.187574 8.724810 -20.047228 7.763033 -8.037551 -14.631457 -7.344199 18.075927 10.912578 -0.887972 29.090273 11.807748 -7.001798 -23.788709 46.304290 -15.111795 4.059456 12.044648 -7.482122 
-0.077384 -31.059381 58.596817 -129.568583 1.093177 84.053322 20.922856 0.127293 2.519056 -20.210736 -0.019327 93.477457 -2.681054 8.904481 -41.225874 nan nan nan -14.619644 -7.468719 -62.183318 -4.928906 -19.395970 103.022348 -3.864131 -12.836207 -37.282888 nan nan nan 1.670316 -8.306054 45.967832 5.229191 9.700225 -1.878829 1.890256 3.584679 7.437454 11.077076 -16.679052 6.055582 7.458015 -23.332041 -18.088754 -12.637643 13.678134 5.327937 -58.055033 5.299521 8.185933 8.678204 -19.904535 7.910095 -8.688724 -14.507596 -7.251565 18.181882 10.964199 -0.703475 28.795384 12.062590 -6.988363 -23.509666 45.838721 -14.662394 4.407122 11.857653 -7.165402 
-0.036379 -31.120773 57.990379 -129.535185 1.519331 83.871780 21.625692 0.070947 2.507146 -20.625510 0.021432 94.484718 -2.670984 8.693532 -41.804806 nan nan nan -14.583017 -7.789802 -62.673240 -4.965481 -19.678602 104.070068 -3.784727 -12.515824 -37.377636 nan nan nan 1.959082 -8.383825 46.050297 5.202143 9.926549 -1.927345 1.853491 3.661144 7.515675 11.411407 -16.585571 6.038670 7.363264 -23.731024 -18.161464 -12.452984 13.962766 5.373463 -58.033433 5.531506 7.997817 8.715153 -19.767157 8.163220 -9.213507 -14.438522 -7.103809 17.998870 11.034579 -0.384779 28.771910 11.966630 -7.397389 -23.064563 45.717282 -13.938575 4.497423 11.436735 -6.717205 
